# xmcd
#
# Track frame offsets: 
#        150
#        23096
#        46510
#        69702
#        86382
#        105437
#        133122
#        151121
#        178798
#        209449
#        233217
#
# Disc length: 3582 seconds
#
# Revision: 0
# Processed by: cddbd v1.5.2PL0 Copyright (c) Steve Scherf et al.
# Submitted via: ExactAudioCopy v1.3
#
DISCID=850dfc0b
DTITLE=Awek - Messin' With The Blues
DYEAR=2004
DGENRE=Modern Electric Blues
TTITLE0=Don't Do It
TTITLE1=He's Fat
TTITLE2=Listen Pretty Babe
TTITLE3=Shake That Thing
TTITLE4=My Lil' Sister
TTITLE5=Early In The Morning
TTITLE6=I'm So Tired
TTITLE7=The Girl I've Found
TTITLE8=Voodoo Man
TTITLE9=Boogie Please My Mind
TTITLE10=I Move Along (Live)
EXTD=
EXTT0=
EXTT1=
EXTT2=
EXTT3=
EXTT4=
EXTT5=
EXTT6=
EXTT7=
EXTT8=
EXTT9=
EXTT10=
PLAYORDER=
